# xmcd
#
# Track frame offsets: 
#        150
#        14279
#        36666
#        49828
#        61838
#        79742
#        101611
#        120368
#        139774
#        162424
#        178738
#        197214
#        211892
#
# Disc length: 3048 seconds
#
# Revision: 0
# Processed by: cddbd v1.5.2PL0 Copyright (c) Steve Scherf et al.
# Submitted via: ExactAudioCopy v0.95b4
#
DISCID=b40be60d
DTITLE=R Combo - Americanagetawitness
DYEAR=2011
DGENRE=Country
TTITLE0=I Can Hear You Talkin'
TTITLE1=No Man's Land
TTITLE2=I'm Following You
TTITLE3=Sore Spot
TTITLE4=Dreams
TTITLE5=Little Bag of Tricks
TTITLE6=Ugly Man
TTITLE7=December
TTITLE8=Pride
TTITLE9=Freedom
TTITLE10=Rocks and Tin
TTITLE11=This Town
TTITLE12=Big Ol' Caboose
EXTD=
EXTT0=
EXTT1=
EXTT2=
EXTT3=
EXTT4=
EXTT5=
EXTT6=
EXTT7=
EXTT8=
EXTT9=
EXTT10=
EXTT11=
EXTT12=
PLAYORDER=
